<?xml version="1.0" encoding="UTF-8"?>
<svg id="Layer_1" data-name="Layer 1" xmlns="http://www.w3.org/2000/svg" viewBox="0 0 582.19 193.47">
  <defs>
    <style>
      .cls-1 { font-family: ClashGrotesk-Medium, 'Clash Grotesk'; font-size: 59.54px; font-weight: 500; }
      .cls-1, .cls-2 { fill: #003024; }
      .cls-3 { letter-spacing: 0em; }
      .cls-4 { letter-spacing: 0em; }
      .cls-5 { letter-spacing: -.02em; }
      .cls-6 { letter-spacing: -.02em; }
      .cls-7 { letter-spacing: 0em; }
      .cls-8 { letter-spacing: -.02em; }
      .cls-9 { fill: #aaf051; }
      .cls-10 { letter-spacing: 0em; }
      .cls-11 { letter-spacing: -.02em; }
      .cls-12 { letter-spacing: 0em; }
      .cls-13 { letter-spacing: -.08em; }
    </style>
  </defs>
  <g>
    <text class="cls-1" transform="translate(173.37 118.46)"><tspan x="0" y="0">e-</tspan><tspan class="cls-3" x="53.83" y="0">n</tspan><tspan class="cls-11" x="87.41" y="0">o</tspan><tspan class="cls-6" x="119.15" y="0">v</tspan><tspan class="cls-7" x="150.29" y="0">a</tspan><tspan class="cls-8" x="181.13" y="0">t</tspan><tspan class="cls-4" x="202.09" y="0">e</tspan><tspan x="233.89" y="0">u</tspan><tspan class="cls-13" x="267.77" y="0">r</tspan><tspan class="cls-12" x="290.63" y="0">.</tspan><tspan class="cls-10" x="302.6" y="0">f</tspan><tspan x="321.54" y="0">r</tspan></text>
    <g>
      <path class="cls-2" d="M125.1,86.46l-17.65,17.12c-.84-1.45-1.85-2.83-3.07-4.06-1.31-1.31-2.79-2.37-4.35-3.24-.12-.07-.25-.14-.37-.2l15.54-15.04s0,0,0,0c0,0,0,0,0,0-8.79-5.35-20.42-4.22-28.03,3.38-7.52,7.52,3.5,6.76,12.5,11.66l-3.87,3.74-17.7,17.13-2.65,2.56c-8.93-13.12-7.58-31.14,4.05-42.77,11.85-11.85,30.32-13.03,43.49-3.55,0,0,.02.01.03.02,1.45,1.04,2.84,2.22,4.15,3.52.01.01.02.03.04.04,2.08,2.1,2.05,5.5-.04,7.6l-2.07,2.08s0,0,0,0Z"/>
      <path class="cls-9" d="M136.91,103.37c-.63,7.57-3.81,14.98-9.53,20.81-11.98,12.2-31.19,13.32-44.48,3.2l2.63-2.55,18.13-17.58,3.79-3.67c.08.13.15.26.23.39,5.07,9.04,4.22,20.36,11.82,12.76,3.92-3.93,6.12-8.92,6.6-14.05.13-1.35.73-2.6,1.69-3.56,1.1-1.1,2.44-1.59,3.75-1.59,2.91,0,5.68,2.4,5.39,5.83Z"/>
    </g>
    <rect class="cls-2" x="155.34" y="66.87" width="4.63" height="67.36" rx="2.31" ry="2.31"/>
  </g>
</svg>
